<svg id="behance-logo-button" xmlns="http://www.w3.org/2000/svg" width="42.959" height="42.96" viewBox="0 0 42.959 42.96">
  <g id="Group_4369" data-name="Group 4369">
    <g id="Group_4368" data-name="Group 4368">
      <path id="Path_1925" data-name="Path 1925" d="M20,20.43c0-1.644-1.119-1.644-1.119-1.644h-4.6v3.528H18.6C19.345,22.314,20,22.076,20,20.43Z" transform="translate(-1.925 -2.532)" fill="#25274d"/>
      <path id="Path_1926" data-name="Path 1926" d="M32.788,22.864A2.827,2.827,0,0,0,30.006,25.3H35.2A2.352,2.352,0,0,0,32.788,22.864Z" transform="translate(-4.044 -3.082)" fill="#25274d"/>
      <path id="Path_1927" data-name="Path 1927" d="M18.884,25.68h-4.6v4.227h4.076c.069,0,.171,0,.293,0,.655-.016,1.9-.2,1.9-2.054C20.552,25.659,18.884,25.68,18.884,25.68Z" transform="translate(-1.925 -3.461)" fill="#25274d"/>
      <path id="Path_1928" data-name="Path 1928" d="M21.48,0A21.48,21.48,0,1,0,42.96,21.48,21.5,21.5,0,0,0,21.48,0Zm3.8,14.376H31.8v1.948H25.281Zm-3.3,10.213c0,4.825-5.023,4.668-5.023,4.668H8.733V13.445h8.226c2.5,0,4.475,1.382,4.475,4.211a2.745,2.745,0,0,1-2.412,3.008C22.2,20.663,21.982,24.589,21.982,24.589Zm12.2-.26H25.992a2.574,2.574,0,0,0,2.783,2.753c2.627,0,2.535-1.7,2.535-1.7H34.1c0,4.515-5.411,4.2-5.411,4.2a5.609,5.609,0,0,1-6.075-6.044s-.006-6.076,6.075-6.076C35.084,17.466,34.185,24.329,34.186,24.329Z" fill="#25274d"/>
    </g>
  </g>
</svg>
