<svg id="dribble-logo-button" xmlns="http://www.w3.org/2000/svg" width="42.959" height="42.96" viewBox="0 0 42.959 42.96">
  <g id="Group_4371" data-name="Group 4371">
    <g id="Group_4370" data-name="Group 4370">
      <path id="Path_1929" data-name="Path 1929" d="M22.432,19.42a69.708,69.708,0,0,0-4.278-6.64,11.544,11.544,0,0,0-6.36,8.047A42.648,42.648,0,0,0,22.432,19.42Z" transform="translate(-1.59 -1.723)" fill="#25274d"/>
      <path id="Path_1930" data-name="Path 1930" d="M21.63,11.894a.191.191,0,0,1-.036.01l.035-.008Z" transform="translate(-2.911 -1.603)" fill="#25274d"/>
      <path id="Path_1931" data-name="Path 1931" d="M32.013,14.383a11.517,11.517,0,0,0-10.326-2.55,58.676,58.676,0,0,1,4.308,6.724C30.343,16.925,31.986,14.428,32.013,14.383Z" transform="translate(-2.923 -1.551)" fill="#25274d"/>
      <path id="Path_1932" data-name="Path 1932" d="M25.685,27c-6.8,2.371-9.022,7.153-9.041,7.194a11.489,11.489,0,0,0,11.578,1.529,48,48,0,0,0-2.462-8.747A.746.746,0,0,0,25.685,27Z" transform="translate(-2.243 -3.636)" fill="#25274d"/>
      <path id="Path_1933" data-name="Path 1933" d="M23.829,24.6c.151-.049.3-.1.453-.138-.287-.657-.6-1.313-.934-1.96a42.263,42.263,0,0,1-11.829,1.642c0,.121-.01.241-.01.363a11.485,11.485,0,0,0,2.951,7.7l0-.007A18.255,18.255,0,0,1,23.829,24.6Z" transform="translate(-1.551 -3.033)" fill="#25274d"/>
      <path id="Path_1934" data-name="Path 1934" d="M21.48,0A21.48,21.48,0,1,0,42.96,21.48,21.5,21.5,0,0,0,21.48,0ZM34.7,24.2a13.384,13.384,0,0,1-2.03,4.828,13.88,13.88,0,0,1-1.645,2,13.485,13.485,0,0,1-17.089,1.645,13.726,13.726,0,0,1-2-1.645,13.433,13.433,0,0,1-1.647-2A13.54,13.54,0,0,1,8.262,18.763a13.458,13.458,0,0,1,2.031-4.827,13.634,13.634,0,0,1,1.647-2,13.485,13.485,0,0,1,2-1.647,13.625,13.625,0,0,1,2.292-1.244,13.478,13.478,0,0,1,12.8,1.244,13.738,13.738,0,0,1,2,1.647A13.531,13.531,0,0,1,34.7,24.2Z" fill="#25274d"/>
      <path id="Path_1935" data-name="Path 1935" d="M29.676,26.331a49.639,49.639,0,0,1,2.243,8.232,11.535,11.535,0,0,0,4.94-7.729A16.724,16.724,0,0,0,29.676,26.331Z" transform="translate(-4 -3.524)" fill="#25274d"/>
      <path id="Path_1936" data-name="Path 1936" d="M27.689,20.927q.4.824.767,1.672c.087.2.166.4.248.6a26.715,26.715,0,0,1,8.024.378,11.461,11.461,0,0,0-2.618-7.2A14.807,14.807,0,0,1,27.689,20.927Z" transform="translate(-3.732 -2.206)" fill="#25274d"/>
    </g>
  </g>
</svg>
