<svg id="github-logo" xmlns="http://www.w3.org/2000/svg" width="44.037" height="42.96" viewBox="0 0 44.037 42.96">
  <path id="Path_1937" data-name="Path 1937" d="M41.083,16.331A21.923,21.923,0,0,0,33.07,8.318,21.536,21.536,0,0,0,22.018,5.365,21.539,21.539,0,0,0,10.966,8.318a21.92,21.92,0,0,0-8.013,8.013A21.538,21.538,0,0,0,0,27.383,21.4,21.4,0,0,0,4.2,40.327a21.565,21.565,0,0,0,10.851,7.956,1.283,1.283,0,0,0,1.147-.2,1.121,1.121,0,0,0,.373-.86q0-.086-.014-1.548t-.014-2.551l-.659.114a8.412,8.412,0,0,1-1.591.1,12.122,12.122,0,0,1-1.992-.2,4.452,4.452,0,0,1-1.921-.859,3.638,3.638,0,0,1-1.261-1.763l-.287-.66a7.164,7.164,0,0,0-.9-1.462A3.46,3.46,0,0,0,6.68,37.3l-.2-.144a2.1,2.1,0,0,1-.373-.344,1.573,1.573,0,0,1-.258-.4q-.086-.2.143-.33a1.859,1.859,0,0,1,.831-.128l.573.086a4.185,4.185,0,0,1,1.419.688,4.627,4.627,0,0,1,1.39,1.49A5.054,5.054,0,0,0,11.8,40.012a3.375,3.375,0,0,0,1.878.616,8.153,8.153,0,0,0,1.634-.143,5.7,5.7,0,0,0,1.29-.43A4.645,4.645,0,0,1,18,37.1a19.631,19.631,0,0,1-2.939-.516,11.7,11.7,0,0,1-2.695-1.119,7.718,7.718,0,0,1-2.308-1.921,9.231,9.231,0,0,1-1.5-3.01,14.315,14.315,0,0,1-.588-4.3,8.362,8.362,0,0,1,2.265-5.906,7.707,7.707,0,0,1,.2-5.848,4.017,4.017,0,0,1,2.466.387,17.237,17.237,0,0,1,2.394,1.1q.76.458,1.219.774a20.705,20.705,0,0,1,11.01,0l1.089-.688A15.429,15.429,0,0,1,31.25,14.8a3.757,3.757,0,0,1,2.323-.315A7.633,7.633,0,0,1,33.8,20.33a8.364,8.364,0,0,1,2.265,5.906,14.475,14.475,0,0,1-.588,4.314,8.872,8.872,0,0,1-1.519,3.01,8.015,8.015,0,0,1-2.323,1.906,11.723,11.723,0,0,1-2.7,1.118A19.611,19.611,0,0,1,26,37.1a5.106,5.106,0,0,1,1.49,4.071v6.049a1.142,1.142,0,0,0,.359.86,1.245,1.245,0,0,0,1.132.2,21.562,21.562,0,0,0,10.852-7.956,21.4,21.4,0,0,0,4.2-12.944A21.555,21.555,0,0,0,41.083,16.331Z" transform="translate(0 -5.365)" fill="#25274d"/>
</svg>
